<?xml version="1.0" encoding="utf-8"?>
<!-- Generator: Adobe Illustrator 16.0.0, SVG Export Plug-In . SVG Version: 6.00 Build 0)  -->
<!DOCTYPE svg PUBLIC "-//W3C//DTD SVG 1.1//EN" "http://www.w3.org/Graphics/SVG/1.1/DTD/svg11.dtd">
<svg version="1.1" xmlns="http://www.w3.org/2000/svg" xmlns:xlink="http://www.w3.org/1999/xlink" x="0px" y="0px" width="864px"
	 height="864px" viewBox="0 0 864 864" enable-background="new 0 0 864 864" xml:space="preserve">
<g id="Layer_2">
	<rect x="-27" y="-25" fill="#D16127" width="918" height="916"/>
</g>
<g id="Layer_1" display="none">
	
		<image display="inline" overflow="visible" width="500" height="279" xlink:href="9CD38620.jpg"  transform="matrix(1.4847 0 0 1.4847 78.3848 232.7588)">
	</image>
</g>
<g id="Layer_5" display="none">
	
		<rect x="1176.7" y="-9.756" transform="matrix(-0.3679 -0.9299 0.9299 -0.3679 1312.7925 1544.0339)" display="inline" fill="#FFFFFF" width="9.001" height="671.131"/>
</g>
<g id="Layer_3">
	<g>
		<path fill="#292732" d="M158.541,423.369c0,0,28.168,77.202,62.596,108.5c0,0,88.678,70.942,260.818,46.947
			c0,0,106.414-17.736,138.755-63.64c0,0,62.599-80.331,44.86-116.847c0,0,16.485,49.659-61.553,88.678
			c-2.086,1.044-37.558,20.866-111.63,28.169c0,0-155.447,12.519-203.438-9.39C288.95,505.787,185.666,485.965,158.541,423.369z"/>
		<g>
			<path fill="#141318" d="M668.613,415.946c0,59.006-114.803,106.84-256.419,106.84c-141.616,0-256.418-47.834-256.418-106.84
				c0-38.45,48.746-72.156,121.891-90.975c9.018-2.32,4.701-11.383,14.416-13.232c6.12-1.165,26.074,4.737,32.44,3.772
				c27.354-4.146,56.879-6.408,87.672-6.408C553.811,309.104,668.613,356.939,668.613,415.946z"/>
			<path fill="#1F1E23" d="M199.773,475.023c0,0,26.583-64.173,170.945-79.188c0,0,148.796-2.721,208.263,29.621
				c0,0,39.393,16.865,46.935,49.548c0,0-17.735,9.91-31.105,16.438c-4.609,2.25-7.228,6.044-7.896,8.72
				c0,0-7.541,12.57-37.709,11.313c0,0-143.292,33.938-263.959-1.258C285.246,510.218,239.995,498.905,199.773,475.023z"/>
		</g>
		<g>
			<path fill="#3F3D49" d="M278.52,513.091l6.259,13.563c0,0-23.889-3.561-95.871-5.126l-1.498-0.786
				c0,0-49.729-21.214-64.334-44.86c0,0-1.739-5.564-1.739-9.737c0,0,18.432,21.909,60.162,38.948L278.52,513.091z"/>
			<g>
				<path fill="#292732" d="M156.809,419.197c-0.042-0.083-0.085,0.058-0.103,0.392
					C156.798,419.392,156.838,419.254,156.809,419.197z"/>
				<path fill="#292732" d="M156.706,419.589c-2.117,4.565-35.021,44.815-35.021,44.815c7.999,18.779,60.509,42.427,60.509,42.427
					l104.67,6.26C160.645,482.681,156.43,424.855,156.706,419.589z M215.923,499.528c0,0-21.208-1.042-24.338-1.391
					c0,0-40.34-19.823-48.687-30.95c0,0,5.217-14.259,16.692-16.346c0,0,34.771,36.515,65.722,46.6
					C225.313,497.441,222.183,499.18,215.923,499.528z"/>
			</g>
		</g>
		<path fill="#141318" d="M793.477,305.476c0,0-2.15-21.165-59.031-6.244c0,0-56.406,26.154-81.05,34.704
			c0,0-45.964,14.256-76.501,1.8c0,0,65.416,37.201,66.77,39.645c0,0-6.469-10.748,85.095-33.394
			C728.759,341.985,813.047,324.65,793.477,305.476z M732.51,327.647c-19.271,6.723-35.893,9.308-37.126,5.771
			c-1.235-3.536,13.387-11.853,32.657-18.577c19.272-6.724,35.894-9.308,37.127-5.772
			C766.402,312.605,751.781,320.922,732.51,327.647z"/>
	</g>
	<path opacity="0.3" fill="#1F1E23" d="M192.773,471.677c0,0,27.269-68.371,175.358-84.368c0,0,152.638-2.898,213.639,31.558
		c0,0,40.41,17.968,48.146,52.789c0,0-18.192,10.559-31.908,17.514c-4.729,2.397-7.414,6.439-8.101,9.29
		c0,0-7.735,13.393-38.683,12.054c0,0-146.991,36.158-270.773-1.34C280.452,509.173,234.033,497.12,192.773,471.677z"/>
</g>
<g id="Layer_4">
</g>
</svg>
