<?xml version="1.0" encoding="utf-8"?>
<!-- Generator: Adobe Illustrator 16.0.0, SVG Export Plug-In . SVG Version: 6.00 Build 0)  -->
<!DOCTYPE svg PUBLIC "-//W3C//DTD SVG 1.1//EN" "http://www.w3.org/Graphics/SVG/1.1/DTD/svg11.dtd">
<svg version="1.1" xmlns="http://www.w3.org/2000/svg" xmlns:xlink="http://www.w3.org/1999/xlink" x="0px" y="0px" width="864px"
	 height="864px" viewBox="0 0 864 864" enable-background="new 0 0 864 864" xml:space="preserve">
<g id="Layer_2">
</g>
<g id="Layer_1" display="none">
	
		<image display="inline" overflow="visible" width="1198" height="799" xlink:href="B4021D0B.jpg"  transform="matrix(0.8356 0 0 0.8356 -111.0581 119.7476)">
	</image>
</g>
<g id="Layer_9">
	<path fill="#7C8081" d="M669,215l9.395,0.968c0,0,13.153,20.333,0.94,60.032h-9.396L669,215z"/>
</g>
<g id="Mixer_Base">
	<g>
		<path fill="#D16127" d="M679.747,714.555c-8.025-6.931-30.961-11.983-59.041-15.661c-0.423,0.194-165.148,75.72-237.345-66.267
			c0,0,27.107,47.434,78.039,55.918c-155.909-42.103-117.798-307.726-117.798-307.726C302.639,344.675,250.832,376,250.832,376
			c-2.41,0-56.626,253.012-56.626,253.012c-12.048,54.217-44.579,62.651-44.579,62.651c-15.663,12.049-27.711,49.397-27.711,49.397
			C139,752,144,752,144,752c61,16,441.771,5.928,441.771,5.928c103.615-1.205,104.819-15.663,104.819-15.663
			C689.387,727.807,679.747,714.555,679.747,714.555z"/>
		<path fill="#D16127" d="M468.021,689.317c11.688,0.495,88.117,3.787,128.414,6.831
			C543.81,690.996,483.752,689.604,468.021,689.317z"/>
	</g>
	<path fill="#AD5226" d="M383.361,632.627c0,0,28.916,50.602,83.133,56.626c0,0,144.578,6.024,154.217,9.639
		C620.711,698.892,455.65,774.796,383.361,632.627z"/>
	<path fill="#7C8081" d="M634.486,707.195c-0.148,8.009-41.229,13.739-91.756,12.802s-72.73-6.996-98.063-19.996
		c-7.125-3.656,48.076-9.938,98.603-9.001S634.635,699.188,634.486,707.195z"/>
	<path fill="#782F30" d="M876.133,647.084"/>
	<path fill="#DDD9D4" d="M364.084,429.012c0,0-3.609,142.204,66.265,215.663c13.15,13.825,33.734,25.301,34.939,34.939l1.205,20.482
		c0,0,68.675,24.097,150.603,3.614l-1.205-22.892c0,0,67.47-45.784,85.542-106.024c0,0,30.12-80.723,21.687-144.578L364.084,429.012
		z"/>
	<path fill="#74716C" d="M718.412,428.002c-24.003,3.146-93.723,5.421-176.004,5.421c-82.282,0-152.001-2.275-176.005-5.421
		c-5.792,0.759-8.935,1.569-8.935,2.41c0,4.325,82.8,7.832,184.939,7.832c102.139,0,184.939-3.507,184.939-7.832
		C727.348,429.571,724.205,428.761,718.412,428.002z"/>
	<path fill="#9F9F9D" d="M227.001,346.001c0,0-3.001-185.001-0.001-189.001s-4-1-4-1s-116,23-61,135c0,0-2,25,0,33
		C162,324,207.001,347.001,227.001,346.001z"/>
	<path fill="#DDD9D4" d="M227,348c0,0-6-190,2-198c0,0,253.275-0.14,297.979,0.889c1.623,0.038,2.971,0.074,4.021,0.109
		c30,1,73,22.002,101,60.002c0,0,6,4,10,4s-4,0-4,0h37c0,0,9,43-1,61c0,0-31-1-40,2l-2,84c0,0-137-9.002-170,1.998L460,349
		c0,0-105-9-116,26c0,0-41-33-95,0C249,375,251,360,227,348z"/>
	<path fill="#74716C" d="M712.653,433.6c-23.354-2.753-91.188-4.744-171.245-4.744c-80.058,0-147.892,1.991-171.247,4.744
		c-5.635-0.665-8.693-1.373-8.693-2.109c0-3.784,80.562-6.852,179.939-6.852c99.377,0,179.939,3.068,179.939,6.852
		C721.348,432.227,718.29,432.935,712.653,433.6z"/>
</g>
<g id="Layer_25">
	<path fill="#E5E5E5" d="M613,469c0,0,19.007-35,35.132-22.421c5.809,4.531-3.182,123.769-36.582,156.89
		c0,0,37.45-90.469,1.45-138.469"/>
</g>
<g id="Layer_24">
	<path fill="#E2E0DE" d="M543.871,192.685c0,0,50.941-1.091,59.23,27.557c0.488,1.688,0.829,3.48,1.002,5.382
		C607.212,259.785,551.64,211.85,543.871,192.685z"/>
	<path fill="#E2E0DE" d="M641.07,221.729c0,0,15.757,10.138,12.396,20.577c-0.198,0.615-0.462,1.231-0.8,1.847
		C646.592,255.208,639.5,229.169,641.07,221.729z"/>
</g>
<g id="Layer_23">
	<path fill="#A9A8A8" d="M169,198c0,0,29-22,51-17l2-23c0,0-42,6-64,47L169,198z"/>
	<path fill="#E2E0DE" d="M231,152c0,0,288,2.997,292,2.997c0,0,13.005,22.001,9.005,24.001c0,0-297.005-5.998-302.005,1.002
		C230,180,226,159,231,152z"/>
</g>
<g id="Layer_22">
	<path fill="#CFCECE" d="M363.999,434.001C363.999,434.001,360,608,467,676c0,0,111,20,151,0c0,0,28-16,8-27s-4-2-4-2
		s-102-22-112-28c0,0-50-21-68-57c0,0-13-7-13-2c0,0-40-53.999-25-123.999C404,436.001,372.999,435.001,363.999,434.001z"/>
</g>
<g id="Layer_21">
	<path fill="#AC5226" d="M280,369c0,0-41,172-27,205c0,0,42,48,39,77c0,0-7,49-23,62s-2,4-2,4s63,34.003,77,43.003
		c0,0-148,0.997-177-4.997c0,0-33-0.006-33-12.006c0,0,2-29,26-33c0,0,32-36,46-107l46-225C252,378,271,359,280,369z"/>
</g>
<g id="Layer_13">
	<path fill="#BCBFC4" d="M634.001,279c0,0-10.001-4-70.001-5l-338,0.001V308l336,1l71.001,1L634.001,279z"/>
</g>
<g id="Layer_11">
	<path fill="#9F9F9D" d="M632.667,339.333c0,0-134.335-7.5-173.333,3l2,21.333c0,0,165.754-5.094,171,0L632.667,339.333z"/>
</g>
<g id="Layer_12">
	<ellipse fill="#74716C" cx="547.127" cy="363.85" rx="85.54" ry="3.499"/>
</g>
<g id="Layer_8">
	<circle fill="#C1C1C0" cx="297.5" cy="439.501" r="9.5"/>
	<circle fill="#C1C1C0" cx="421.5" cy="238" r="14"/>
	<path fill="#9F9F9D" d="M290,441.501c0-5.247,4.254-9.5,9.5-9.5c1.985,0,3.827,0.611,5.352,1.652
		c-1.711-2.507-4.589-4.153-7.852-4.153c-5.246,0-9.5,4.253-9.5,9.5c0,3.262,1.645,6.137,4.148,7.848
		C290.609,445.324,290,443.484,290,441.501z"/>
	<path fill="#7C8081" d="M540,316c0,0-28,7-35,17c0,0-11-3-13,6c0,0-31,6-32,10c0,0-52-1-76,4c0,0-31.5,6.5-40.5,27.5
		c0,0-46.5-35.5-94.5-2.5c0,0-3-23-23.002-30c0,0-0.998-21-0.998-34L540,316z"/>
	<g>
		<path fill="none" d="M414.061,226.204l18.735,18.735c1.041-3.692-0.943-9.086-5.296-13.439
			C423.147,227.147,417.753,225.164,414.061,226.204z"/>
		<path fill="none" d="M415.5,243.5c4.353,4.353,9.747,6.336,13.439,5.296l-18.735-18.735
			C409.164,233.753,411.146,239.147,415.5,243.5z"/>
		<path fill="#7C8081" d="M411.601,227.601c-0.675,0.675-1.13,1.515-1.397,2.46l18.735,18.735c0.945-0.267,1.785-0.721,2.461-1.396
			c0.675-0.675,1.129-1.515,1.396-2.46l-18.735-18.735C413.116,226.47,412.276,226.925,411.601,227.601z"/>
	</g>
</g>
<g id="Layer_10">
	<path fill="#74716C" d="M343.5,378.5c0,0,10.834-31.333,116.834-28.833c0,0,21.166-10.667,31.166-10.667c0,0-77.5,2-96.5,1
		C395,340,356.5,352.5,343.5,378.5z"/>
</g>
<g id="Layer_7">
	<ellipse fill="#C1C1C0" cx="542.5" cy="431" rx="132.5" ry="4"/>
</g>
<g id="Layer_6">
	<path fill="#C1C0BF" d="M681.67,617.667c0,0,22.997-32,59.997-25c0,0,29,3,26-18c0,0,4.001-84.333,1.334-105
		c0,0,0.667-12.666-32-13.333c0,0-10.501,1.166-14.001-25.834c0,0-5.333,19.834,5.334,27.834c0,0,6.667,4.667,26,4
		c0,0,4.667,2.001,4.667,10.667s0,2.666,0,2.666l-2.667,98.667c0,0,4.001,12.667-11.333,14c0,0-34-6.001-52.667,7.333
		c0,0-18.33,17.333-16.997,20S681.67,617.667,681.67,617.667z"/>
	<path fill="#A9A8A8" d="M767.773,570.999c0.55-12.202,2.987-69.081,1.838-94.665h-10.665l-2.56,94.665H767.773z"/>
</g>
<g id="Layer_20">
	<path fill="#8E8E8E" d="M605,434.579c0,0.671-22,1.007-22,0.335c0-6.839,0-35.914,0-35.914h22C605,399,605,426.639,605,434.579z"/>
</g>
<g id="Layer_18">
	<path fill="#9F9F9D" d="M485,367c0,0-1,13,12,17h29c0,0,3,0,3,6l1,8c0,0-5,1,6,2c0,0,72,0,76,0c0,0,3,1,3-9s0-25,0-25L485,367z"/>
</g>
<g id="Layer_19">
	<path fill="#8E8E8E" d="M486.999,376.666c0,0,3.668,5.667,11.668,5.667L525,382.999c0,0,78.333,1.001,90-0.999v-6
		C615,376,524.999,378.333,486.999,376.666z"/>
</g>
<g id="Layer_5">
	<path fill="#A9A8A8" d="M767.5,570.75c0,0,4.75,23.75-21.25,17.75c0,0,12.25-1.25,10.5-14.25V569
		C756.75,569,766.833,567.416,767.5,570.75z"/>
	<path fill="#A9A8A8" d="M769.5,476.5c0,0,0.5-9.5-2.5-11.75c0,0-6-5.5-13.75-6.75c0,0,19.25,9,5.75,18l-0.25,3.25L769.5,476.5z"/>
</g>
<g id="Layer_16">
	<rect x="357" y="297.002" fill="#3A3A3A" width="126" height="7"/>
</g>
<g id="Layer_15">
</g>
<g id="Layer_14">
	
		<rect x="371.023" y="298.114" transform="matrix(0.9992 0.0403 -0.0403 0.9992 12.4235 -15.4277)" fill="#7C8081" width="34.957" height="4.041"/>
	<path fill="#9F9F9D" d="M383.002,292.002c0,0-24.5-16-29.5,7c0,0,0.5,24,29.5,8C383.002,307.002,364.002,298.502,383.002,292.002z"
		/>
	<path fill="#74716C" d="M367.002,286.502c0,0,9.061-1,14.002,5c0,0-9.473,9.5,0,14.999c0,0-4.12,6.002-7.414,3.002
		c0,0-4.118-10.001,0-16.001C373.59,293.502,372.767,289.502,367.002,286.502z"/>
</g>
<g id="Layer_17">
	<text transform="matrix(1 0 0 1 382.002 295)" font-family="'JerseyM54'" font-size="12">Stir   2   4   6   8   10</text>
</g>
</svg>
