<?xml version="1.0" encoding="utf-8"?>
<!-- Generator: Adobe Illustrator 16.0.0, SVG Export Plug-In . SVG Version: 6.00 Build 0)  -->
<!DOCTYPE svg PUBLIC "-//W3C//DTD SVG 1.1//EN" "http://www.w3.org/Graphics/SVG/1.1/DTD/svg11.dtd">
<svg version="1.1" id="Layer_1" xmlns="http://www.w3.org/2000/svg" xmlns:xlink="http://www.w3.org/1999/xlink" x="0px" y="0px"
	 width="500px" height="500px" viewBox="0 0 500 500" enable-background="new 0 0 500 500" xml:space="preserve">
<path fill-rule="evenodd" clip-rule="evenodd" fill="#AD2D2D" d="M74.868,185.946c30.619-72.58,109.535-132.201,211.92-124.807
	c-28.015-1.763-24.02-18.534-115.073,9.069c-53.562,16.238-87.725,58.787-108.094,110.996
	c-29.294,75.083-16.353,216.414,129.603,254.849C90.582,385.441,33.885,283.094,74.868,185.946z"/>
<path fill-rule="evenodd" clip-rule="evenodd" fill="#E2E2E2" d="M248.297,179.246c34.177,0,68.354,0.032,102.529-0.05
	c3.421-0.008,6.29,0.894,7.924,4.921c2.301,5.667-0.456,12.189-5.445,13.019c-1.268,0.211-2.569,0.105-3.855,0.105
	c-67.21,0.004-134.417,0.004-201.625,0c-1.287,0-2.586,0.106-3.858-0.078c-3.797-0.548-10.196-4.54-10.056-9.263
	c0.136-4.575,3.756-8.704,10.148-8.58c1.28,0.025,2.57-0.074,3.857-0.074C181.376,179.245,214.837,179.246,248.297,179.246z"/>
<path fill-rule="evenodd" clip-rule="evenodd" fill="#E2E2E2" d="M248.299,222.152c34.177,0,68.353,0.031,102.528-0.05
	c3.422-0.008,6.289,0.894,7.923,4.923c2.299,5.668-0.456,12.188-5.446,13.019c-1.268,0.209-2.569,0.104-3.855,0.104
	c-67.209,0.004-134.417,0.004-201.626,0c-1.286,0-2.586,0.106-3.856-0.078c-3.798-0.549-10.196-4.542-10.055-9.264
	c0.136-4.575,2.932-8.703,10.148-8.579c1.281,0.022,2.571-0.072,3.857-0.072C181.376,222.151,214.838,222.152,248.299,222.152z"/>
<path fill-rule="evenodd" clip-rule="evenodd" fill="#E2E2E2" d="M248.287,283.084c-33.461,0-66.923,0.006-100.382-0.006
	c-1.57,0-3.202,0.207-4.699-0.242c-3.667-1.102-9.354-4.334-9.234-9.01c0.12-4.615-0.002-8.793,9.582-8.635
	c1.128,0.021,2.28-0.139,3.424-0.139c67.78-0.006,135.56-0.008,203.339-0.002c6.24,0,9.366,3.262,9.087,9.514
	c-0.215,4.793-3.485,7.684-7.255,8.396c-1.402,0.264-1.62,0.123-3.049,0.123C315.497,283.086,281.891,283.084,248.287,283.084z"/>
<path fill-rule="evenodd" clip-rule="evenodd" fill="#E2E2E2" d="M123.561,132.455c88.389,0,176.775,0,265.164,0
	c0.339,0.225,0.649,0.573,1.021,0.656c17.736,3.964,26.868,15.299,26.869,33.403c0.006,44.302,0.009,88.603-0.001,132.904
	c-0.003,20.336-13.517,33.836-33.851,33.836c-46.588,0.006-93.176,0.031-139.764-0.063c-2.964-0.006-5.011,0.859-7.079,2.945
	c-18.215,18.363-36.513,36.646-54.849,54.891c-2.396,2.381-5.15,4.402-7.737,6.59c-2.29,0-11.99,0-14.278,0
	c-5.561-3.186,0.148-7.98,0.293-14.305c0.344-15.006,0.109-30.027,0.109-45.043c0-1.529,0-3.061,0-5.012c-1.872,0-3.265,0-4.658,0
	c-9.437-0.002-18.876,0.104-28.313-0.025c-17.358-0.238-31.326-14.186-31.358-31.527c-0.086-45.762-0.066-91.521-0.007-137.281
	c0.019-14.78,10.157-27.419,24.419-30.848C120.894,133.25,122.223,132.831,123.561,132.455z M181.057,360.621
	c15.349-15.363,29.862-29.762,44.202-44.334c3.252-3.307,6.741-4.707,11.383-4.697c48.051,0.113,96.103,0.07,144.154,0.068
	c1.145,0,2.29,0.041,3.432-0.008c7.119-0.305,11.173-4.879,10.677-11.969c-0.089-1.281-0.032-2.574-0.032-3.859
	c-0.001-42.617-0.001-85.234-0.002-127.852c0-1.287,0.061-2.579-0.034-3.86c-0.374-5.076-3.863-8.832-8.882-9.443
	c-2.119-0.259-4.274-0.312-6.414-0.313c-82.517-0.014-165.036-0.013-247.552-0.011c-1.144,0-2.29-0.037-3.432,0.018
	c-8.203,0.386-11.855,4.197-11.856,12.421c-0.007,44.046-0.007,88.095-0.002,132.144c0.002,8.734,4.043,12.719,12.926,12.729
	c12.728,0.02,25.457,0.002,38.184,0.006c9.655,0.006,13.239,3.551,13.246,13.113C181.063,336.311,181.057,347.846,181.057,360.621z"
	/>
<path fill-rule="evenodd" clip-rule="evenodd" fill="#AD2D2D" d="M488.954,250.568c0.008-240.702-255.75-231.847-255.75-231.847
	l2.592,15.8c4.455-0.295,8.942-0.461,13.469-0.461c115.312,0,208.789,96.933,208.789,216.508
	c0,119.572-93.478,216.504-208.789,216.504c-3.403,0-6.783-0.09-10.145-0.258l0.12,15.598
	C500.059,482.744,488.954,250.568,488.954,250.568z"/>
<path fill-rule="evenodd" clip-rule="evenodd" fill="#FFFFFF" d="M111.207,132.455c88.389,0,176.776,0,265.164,0
	c0.339,0.225,0.65,0.573,1.022,0.656c17.735,3.964,26.868,15.299,26.87,33.403c0.003,44.302,0.008,88.603-0.002,132.904
	c-0.004,20.336-13.519,33.836-33.853,33.836c-46.587,0.006-93.176,0.031-139.763-0.063c-2.964-0.006-5.012,0.859-7.08,2.945
	c-18.215,18.363-36.513,36.646-54.849,54.891c-2.396,2.381-5.15,4.402-7.738,6.59c-2.289,0-4.577,0-6.865,0
	c-5.561-3.186-7.265-7.98-7.119-14.305c0.343-15.006,0.109-30.027,0.109-45.043c0-1.529,0-3.061,0-5.012c-1.872,0-3.265,0-4.658,0
	c-9.437-0.002-18.877,0.104-28.313-0.025c-17.359-0.238-31.325-14.186-31.358-31.527c-0.086-45.762-0.066-91.521-0.007-137.281
	c0.019-14.78,10.157-27.419,24.419-30.848C108.539,133.25,109.869,132.831,111.207,132.455z M168.703,360.621
	c15.348-15.363,29.862-29.762,44.201-44.334c3.253-3.307,6.742-4.707,11.383-4.697c48.051,0.113,96.104,0.07,144.153,0.068
	c1.146,0,2.292,0.041,3.432-0.008c7.119-0.305,11.174-4.879,10.677-11.969c-0.089-1.281-0.03-2.574-0.03-3.859
	c-0.001-42.617-0.001-85.234-0.002-127.852c0-1.287,0.06-2.579-0.034-3.86c-0.374-5.076-3.863-8.832-8.883-9.443
	c-2.119-0.259-4.275-0.312-6.414-0.313c-82.517-0.014-165.036-0.013-247.552-0.011c-1.144,0-2.29-0.037-3.432,0.018
	c-8.203,0.386-11.854,4.197-11.856,12.421c-0.008,44.046-0.008,88.095-0.001,132.144c0.001,8.734,4.042,12.719,12.926,12.729
	c12.728,0.02,25.456,0.002,38.184,0.006c9.654,0.006,13.238,3.551,13.246,13.113C168.708,336.311,168.703,347.846,168.703,360.621z"
	/>
<path fill-rule="evenodd" clip-rule="evenodd" fill="#FFFFFF" d="M243.355,182.941c34.177,0,68.353,0.025,102.529-0.039
	c3.421-0.007,6.289,0.71,7.924,3.912c2.3,4.506-0.457,9.69-5.446,10.349c-1.267,0.168-2.569,0.083-3.854,0.083
	c-67.21,0.003-134.418,0.003-201.626,0c-1.287,0-2.585,0.084-3.858-0.062c-3.797-0.437-6.49-3.608-6.35-7.363
	c0.136-3.638,2.76-6.459,6.441-6.821c1.274-0.125,2.571-0.059,3.858-0.059C176.435,182.941,209.895,182.941,243.355,182.941z"/>
<path fill-rule="evenodd" clip-rule="evenodd" fill="#FFFFFF" d="M243.357,225.848c34.176,0,68.352,0.025,102.528-0.04
	c3.422-0.006,6.289,0.711,7.923,3.914c2.299,4.506-0.457,9.689-5.446,10.35c-1.268,0.167-2.57,0.082-3.857,0.082
	c-67.207,0.003-134.415,0.003-201.624,0c-1.287,0-2.586,0.084-3.857-0.062c-3.798-0.437-6.49-3.611-6.349-7.365
	c0.137-3.637,2.759-6.459,6.441-6.819c1.276-0.126,2.571-0.059,3.858-0.059C176.435,225.847,209.896,225.848,243.357,225.848z"/>
<path fill-rule="evenodd" clip-rule="evenodd" fill="#FFFFFF" d="M243.345,283.063c-33.46,0-66.922,0.002-100.382-0.006
	c-1.57,0-3.202,0.162-4.698-0.191c-3.667-0.875-5.648-3.439-5.528-7.146c0.12-3.662,2.113-6.16,5.875-6.85
	c1.109-0.207,2.28-0.111,3.423-0.111c67.78-0.004,135.56-0.006,203.34-0.002c6.239,0,9.365,2.588,9.087,7.545
	c-0.215,3.805-2.249,6.098-6.021,6.662c-1.401,0.209-2.854,0.098-4.283,0.098C310.556,283.063,276.949,283.063,243.345,283.063z"/>
<path fill-rule="evenodd" clip-rule="evenodd" fill="#C63838" d="M225.058,18.729c156.14-1.033,246.076,102.618,250.16,221.672
	c2.279,66.44-19.853,123.817-65.956,171.612c-41.14,42.648-92.367,64.277-150.746,70.25
	C110.744,487.072,18.572,374.412,12.366,265.617c-3.789-66.45,16.613-124.638,61.919-173.28
	C119.662,43.619,186.304,19.499,225.058,18.729z M436.398,245.637c-0.633-5.96-1.445-16.321-2.88-26.594
	c-2.649-19.007-8.723-36.989-17.187-54.179c-7.639-15.501-17.166-29.738-28.686-42.623c-3.64-4.076-4.51-3.975-7.994,0.147
	c-1.505,1.785-3.169,3.433-4.709,5.193c-17.779,20.361-35.535,40.745-53.325,61.098c-11.24,12.861-22.55,25.663-33.784,38.528
	c-16.005,18.324-31.957,36.689-47.954,55.018c-10.991,12.59-22.034,25.131-33.034,37.713
	c-13.021,14.889-26.035,29.783-39.028,44.695c-11.379,13.061-22.693,26.176-34.122,39.193c-1.969,2.242-1.394,3.582,0.82,4.957
	c4.585,2.848,9.046,5.906,13.716,8.602c24.06,13.883,50.043,21.959,77.623,24.479c9.95,0.91,20.084,0.668,30.072,0.023
	c9.938-0.645,19.972-1.689,29.667-3.877c42.535-9.598,78.022-31.107,105.977-64.656C421.31,337.672,435.622,296.283,436.398,245.637
	z M50.984,249.43c0.258,14.383,1.602,27.945,4.505,41.365c7.064,32.656,21.582,61.529,43.737,86.543
	c2.407,2.717,3.529,2.611,5.861-0.086c7.393-8.551,14.801-17.088,22.244-25.596c19.664-22.48,39.361-44.93,59.02-67.416
	c26.933-30.809,53.836-61.643,80.761-92.459c19.086-21.842,38.181-43.673,57.275-65.507c8.736-9.991,17.491-19.968,26.219-29.97
	c3.295-3.775,3.321-4.329-0.944-6.922c-6.813-4.139-13.552-8.492-20.717-11.939C298.94,63.007,267.37,55.7,233.943,58.18
	c-10.57,0.784-21.271,1.601-31.572,3.914c-42.938,9.636-78.778,31.261-106.949,65.25C65.92,162.937,51.804,204.104,50.984,249.43z"
	/>
<path fill-rule="evenodd" clip-rule="evenodd" fill="#AD2D2D" d="M391.84,127.096L142.962,414.174c0,0-9.114-1.846-9.266-10.348
	c-0.152-8.502,236.763-275.265,250.291-286.842C383.987,116.984,389.045,120.782,391.84,127.096z"/>
</svg>
